<svg width="14" height="14" viewBox="0 0 14 14" fill="none" xmlns="http://www.w3.org/2000/svg">
<path d="M11.9997 1.66683H9.99967V0.666829C9.99967 0.578424 9.96455 0.493639 9.90204 0.431127C9.83953 0.368615 9.75475 0.333496 9.66634 0.333496C9.57794 0.333496 9.49315 0.368615 9.43064 0.431127C9.36813 0.493639 9.33301 0.578424 9.33301 0.666829V1.66683H4.66634V0.666829C4.66634 0.578424 4.63122 0.493639 4.56871 0.431127C4.5062 0.368615 4.42141 0.333496 4.33301 0.333496C4.2446 0.333496 4.15982 0.368615 4.09731 0.431127C4.03479 0.493639 3.99967 0.578424 3.99967 0.666829V1.66683H1.99967C1.55781 1.66736 1.13419 1.84312 0.821748 2.15557C0.509302 2.46802 0.333537 2.89163 0.333008 3.3335V12.0002C0.333537 12.442 0.509302 12.8656 0.821748 13.1781C1.13419 13.4905 1.55781 13.6663 1.99967 13.6668H11.9997C12.4417 13.6668 12.8656 13.4912 13.1782 13.1787C13.4907 12.8661 13.6663 12.4422 13.6663 12.0002V3.3335C13.6663 2.89147 13.4907 2.46755 13.1782 2.15498C12.8656 1.84242 12.4417 1.66683 11.9997 1.66683ZM12.9997 12.0002C12.9997 12.2654 12.8943 12.5197 12.7068 12.7073C12.5192 12.8948 12.2649 13.0002 11.9997 13.0002H1.99967C1.73446 13.0002 1.4801 12.8948 1.29257 12.7073C1.10503 12.5197 0.999674 12.2654 0.999674 12.0002V6.3335H12.9997V12.0002ZM12.9997 5.66683H0.999674V3.3335C0.999674 2.7815 1.44634 2.3335 1.99967 2.3335H3.99967V3.3335C3.99967 3.4219 4.03479 3.50669 4.09731 3.5692C4.15982 3.63171 4.2446 3.66683 4.33301 3.66683C4.42141 3.66683 4.5062 3.63171 4.56871 3.5692C4.63122 3.50669 4.66634 3.4219 4.66634 3.3335V2.3335H9.33301V3.3335C9.33301 3.4219 9.36813 3.50669 9.43064 3.5692C9.49315 3.63171 9.57794 3.66683 9.66634 3.66683C9.75475 3.66683 9.83953 3.63171 9.90204 3.5692C9.96455 3.50669 9.99967 3.4219 9.99967 3.3335V2.3335H11.9997C12.2649 2.3335 12.5192 2.43885 12.7068 2.62639C12.8943 2.81393 12.9997 3.06828 12.9997 3.3335V5.66683Z" fill="#2D2D2D"/>
</svg>
