<svg width="36" height="36" viewBox="0 0 36 36" fill="none" xmlns="http://www.w3.org/2000/svg">
<rect x="0.5" y="0.5" width="35" height="35" rx="17.5" fill="#F5F5F5"/>
<rect x="0.5" y="0.5" width="35" height="35" rx="17.5" stroke="#E6E6E6"/>
<path d="M27 28H9C8.59 28 8.25 27.66 8.25 27.25C8.25 26.84 8.59 26.5 9 26.5H27C27.41 26.5 27.75 26.84 27.75 27.25C27.75 27.66 27.41 28 27 28Z" fill="#2D2D2D"/>
<path d="M25.0196 9.47991C23.0796 7.53991 21.1796 7.48991 19.1896 9.47991L17.9796 10.6899C17.8796 10.7899 17.8396 10.9499 17.8796 11.0899C18.6396 13.7399 20.7596 15.8599 23.4096 16.6199C23.4496 16.6299 23.4896 16.6399 23.5296 16.6399C23.6396 16.6399 23.7396 16.5999 23.8196 16.5199L25.0196 15.3099C26.0096 14.3299 26.4896 13.3799 26.4896 12.4199C26.4996 11.4299 26.0196 10.4699 25.0196 9.47991Z" fill="#2D2D2D"/>
<path d="M21.6103 17.53C21.3203 17.39 21.0403 17.25 20.7703 17.09C20.5503 16.96 20.3403 16.82 20.1303 16.67C19.9603 16.56 19.7603 16.4 19.5703 16.24C19.5503 16.23 19.4803 16.17 19.4003 16.09C19.0703 15.81 18.7003 15.45 18.3703 15.05C18.3403 15.03 18.2903 14.96 18.2203 14.87C18.1203 14.75 17.9503 14.55 17.8003 14.32C17.6803 14.17 17.5403 13.95 17.4103 13.73C17.2503 13.46 17.1103 13.19 16.9703 12.91C16.9491 12.8647 16.9286 12.8195 16.9088 12.7746C16.7612 12.4413 16.3265 12.3438 16.0688 12.6016L10.3403 18.33C10.2103 18.46 10.0903 18.71 10.0603 18.88L9.52032 22.71C9.42032 23.39 9.61032 24.03 10.0303 24.46C10.3903 24.81 10.8903 25 11.4303 25C11.5503 25 11.6703 24.99 11.7903 24.97L15.6303 24.43C15.8103 24.4 16.0603 24.28 16.1803 24.15L21.9016 18.4287C22.1612 18.1692 22.0633 17.7237 21.7257 17.5797C21.6877 17.5634 21.6492 17.5469 21.6103 17.53Z" fill="#2D2D2D"/>
</svg>
