<svg width="29" height="30" viewBox="0 0 29 30" fill="none" xmlns="http://www.w3.org/2000/svg">
<rect x="0.25" y="0.75" width="28.5" height="28.5" rx="8.25" fill="#FFE6E6"/>
<rect x="0.25" y="0.75" width="28.5" height="28.5" rx="8.25" stroke="#9C0000" stroke-width="0.5"/>
<path d="M5.5 8.5H23.5M18.5557 8.5L17.8731 7.09173C17.4196 6.15626 17.1928 5.68852 16.8017 5.39681C16.715 5.3321 16.6231 5.27454 16.527 5.2247C16.0939 5 15.5741 5 14.5345 5C13.4688 5 12.936 5 12.4957 5.23412C12.3981 5.28601 12.305 5.3459 12.2173 5.41317C11.8216 5.7167 11.6006 6.20155 11.1586 7.17126L10.5529 8.5" stroke="#9C0000" stroke-width="1.5" stroke-linecap="round"/>
<path d="M22 8.5L21.3803 18.5251C21.2219 21.0864 21.1428 22.3671 20.5008 23.2879C20.1833 23.7431 19.7747 24.1273 19.3007 24.416C18.3421 25 17.059 25 14.4927 25C11.9231 25 10.6383 25 9.67905 24.4149C9.2048 24.1257 8.796 23.7408 8.47868 23.2848C7.83688 22.3626 7.75945 21.0801 7.60461 18.5152L7 8.5" stroke="#9C0000" stroke-width="1.5" stroke-linecap="round"/>
<path d="M11.583 20.25V13.25" stroke="#9C0000" stroke-width="1.5" stroke-linecap="round"/>
<path d="M17.417 20.25V13.25" stroke="#9C0000" stroke-width="1.5" stroke-linecap="round"/>
</svg>
