<svg width="20" height="20" viewBox="0 0 20 20" fill="none" xmlns="http://www.w3.org/2000/svg">
<path d="M10 5.24121C10.0301 5.24121 10.0613 5.25365 10.0869 5.2793C10.1126 5.30494 10.125 5.33606 10.125 5.36621V8.1416C10.1248 8.21094 10.0697 8.2666 10 8.2666C9.96993 8.2666 9.93869 8.25403 9.91309 8.22852C9.88755 8.20298 9.87511 8.17163 9.875 8.1416V5.36621C9.875 5.33606 9.88744 5.30494 9.91309 5.2793C9.93873 5.25365 9.96985 5.24121 10 5.24121Z" fill="#141414" stroke="#141414"/>
<path d="M10.0166 1.5332C13.1487 1.5332 15.6913 4.07591 15.6914 7.20801V8.95801C15.6914 9.24594 15.7561 9.59259 15.8438 9.90625C15.9316 10.2206 16.0566 10.5503 16.2041 10.7979V10.7988L17.2627 12.5654L17.2637 12.5664C17.5754 13.0838 17.6296 13.7009 17.4219 14.2705C17.217 14.8319 16.7671 15.2644 16.1904 15.459L16.1895 15.46C14.2023 16.1331 12.115 16.458 10.0166 16.458C7.9195 16.458 5.83125 16.1248 3.8418 15.459L3.83984 15.458C3.21405 15.2516 2.76235 14.8137 2.56934 14.2861C2.37541 13.7557 2.4325 13.1287 2.76953 12.5645L2.77051 12.5654L3.8291 10.7988L3.83008 10.7979C3.97709 10.5511 4.10134 10.2241 4.18945 9.91016C4.27741 9.59665 4.3418 9.2498 4.3418 8.95801V7.20801C4.3419 4.07595 6.88453 1.53327 10.0166 1.5332ZM15.4502 7.22363C15.441 4.22453 13.0103 1.79199 10.0166 1.79199C7.02385 1.79206 4.5918 4.22403 4.5918 7.2168V8.9668C4.59173 9.55293 4.34868 10.4374 4.04785 10.9316L4.0459 10.9355L2.98926 12.708C2.70866 13.1721 2.61854 13.7148 2.80664 14.2168C2.99501 14.7191 3.41271 15.0616 3.9248 15.2324H3.92578C7.86153 16.5415 12.1893 16.5415 16.125 15.2324L16.124 15.2314C16.6266 15.0668 17.018 14.6888 17.1953 14.1924C17.3815 13.694 17.3175 13.157 17.0557 12.7129L17.0537 12.71L15.9961 10.9434L15.9941 10.9395L15.8838 10.7373C15.6358 10.2288 15.4502 9.48736 15.4502 8.97461V7.22363Z" fill="#141414" stroke="#141414"/>
<path d="M7.39941 16.1836C7.50098 16.7004 7.75579 17.1805 8.12891 17.5537C8.62043 18.0452 9.29758 18.334 10 18.334C11.2884 18.3338 12.3655 17.4052 12.6006 16.1836H12.8535C12.6157 17.5447 11.4281 18.5838 10 18.584C9.24293 18.584 8.49402 18.2713 7.95312 17.7305C7.53222 17.3096 7.25217 16.7621 7.14746 16.1836H7.39941Z" fill="#141414" stroke="#141414"/>
</svg>
