<svg width="14" height="14" viewBox="0 0 14 14" fill="none" xmlns="http://www.w3.org/2000/svg">
<path d="M0.875004 12.4456C0.875004 12.8208 1.17916 13.125 1.55436 13.125C1.73453 13.125 1.90733 13.0534 2.03473 12.926L11.1965 3.76425L10.2358 2.8035L1.07398 11.9653C0.946578 12.0927 0.875004 12.2655 0.875004 12.4456ZM0.707004 14C0.50692 14 0.33892 13.9323 0.203004 13.797C0.0670869 13.6617 -0.000579594 13.4937 3.73932e-06 13.293V12.383C3.73932e-06 12.1893 0.0379205 12.005 0.113754 11.83C0.189587 11.655 0.291379 11.5039 0.419129 11.3767L11.5325 0.251125C11.6218 0.171208 11.7206 0.109375 11.8291 0.0656248C11.9376 0.0218748 12.0508 0 12.1686 0C12.2865 0 12.4002 0.0186668 12.5099 0.0560001C12.6195 0.0933334 12.7216 0.159833 12.8161 0.2555L13.7498 1.19525C13.846 1.288 13.9119 1.39008 13.9475 1.5015C13.9825 1.61233 14 1.72317 14 1.834C14 1.953 13.9802 2.06675 13.9405 2.17525C13.9002 2.28317 13.8367 2.38204 13.7498 2.47187L2.62325 13.5809C2.49667 13.708 2.34559 13.8095 2.17 13.8854C1.99442 13.9612 1.81009 13.9994 1.617 14H0.707004ZM10.7083 3.29175L10.2358 2.8035L11.1965 3.76425L10.7083 3.29175Z" fill="#2D2D2D"/>
</svg>
